<mxfile host="Electron" modified="2023-12-29T08:14:41.757Z" agent="Mozilla/5.0 (Windows NT 10.0; Win64; x64) AppleWebKit/537.36 (KHTML, like Gecko) draw.io/22.1.15 Chrome/120.0.6099.109 Electron/28.1.0 Safari/537.36" etag="PxD-OIGS3BZmvBqbsDt7" version="22.1.15" type="device">
  <diagram name="Page-1" id="MNWLhpz00cSVCBHDPOyy">
    <mxGraphModel dx="465" dy="320" grid="1" gridSize="10" guides="1" tooltips="1" connect="1" arrows="1" fold="1" page="1" pageScale="1" pageWidth="850" pageHeight="1100" math="0" shadow="0">
      <root>
        <mxCell id="0" />
        <mxCell id="1" parent="0" />
        <mxCell id="ca8iUxLRkEPg5Z3yM6vb-1" value="&lt;font style=&quot;font-size: 16px;&quot;&gt;字节 byte&lt;/font&gt;" style="swimlane;whiteSpace=wrap;html=1;startSize=30;fillColor=#fad7ac;strokeColor=#000000;" parent="1" vertex="1">
          <mxGeometry x="305" y="390" width="240" height="60" as="geometry">
            <mxRectangle x="305" y="390" width="70" height="30" as="alternateBounds" />
          </mxGeometry>
        </mxCell>
        <mxCell id="ca8iUxLRkEPg5Z3yM6vb-2" value="0" style="whiteSpace=wrap;html=1;aspect=fixed;" parent="ca8iUxLRkEPg5Z3yM6vb-1" vertex="1">
          <mxGeometry y="30" width="30" height="30" as="geometry" />
        </mxCell>
        <mxCell id="ca8iUxLRkEPg5Z3yM6vb-3" value="1" style="whiteSpace=wrap;html=1;aspect=fixed;" parent="ca8iUxLRkEPg5Z3yM6vb-1" vertex="1">
          <mxGeometry x="30" y="30" width="30" height="30" as="geometry" />
        </mxCell>
        <mxCell id="ca8iUxLRkEPg5Z3yM6vb-4" value="0" style="whiteSpace=wrap;html=1;aspect=fixed;fillColor=#fad9d5;strokeColor=#ae4132;" parent="ca8iUxLRkEPg5Z3yM6vb-1" vertex="1">
          <mxGeometry x="60" y="30" width="30" height="30" as="geometry" />
        </mxCell>
        <mxCell id="ca8iUxLRkEPg5Z3yM6vb-5" value="0" style="whiteSpace=wrap;html=1;aspect=fixed;" parent="ca8iUxLRkEPg5Z3yM6vb-1" vertex="1">
          <mxGeometry x="90" y="30" width="30" height="30" as="geometry" />
        </mxCell>
        <mxCell id="ca8iUxLRkEPg5Z3yM6vb-11" value="1" style="whiteSpace=wrap;html=1;aspect=fixed;" parent="1" vertex="1">
          <mxGeometry x="425" y="420" width="30" height="30" as="geometry" />
        </mxCell>
        <mxCell id="ca8iUxLRkEPg5Z3yM6vb-12" value="1" style="whiteSpace=wrap;html=1;aspect=fixed;" parent="1" vertex="1">
          <mxGeometry x="455" y="420" width="30" height="30" as="geometry" />
        </mxCell>
        <mxCell id="ca8iUxLRkEPg5Z3yM6vb-13" value="0" style="whiteSpace=wrap;html=1;aspect=fixed;" parent="1" vertex="1">
          <mxGeometry x="485" y="420" width="30" height="30" as="geometry" />
        </mxCell>
        <mxCell id="ca8iUxLRkEPg5Z3yM6vb-14" value="0" style="whiteSpace=wrap;html=1;aspect=fixed;" parent="1" vertex="1">
          <mxGeometry x="515" y="420" width="30" height="30" as="geometry" />
        </mxCell>
        <mxCell id="ca8iUxLRkEPg5Z3yM6vb-15" value="&lt;font style=&quot;font-size: 16px;&quot;&gt;存储器 memory&lt;/font&gt;" style="swimlane;whiteSpace=wrap;html=1;startSize=30;fillColor=#b1ddf0;strokeColor=#000000;rounded=0;" parent="1" vertex="1">
          <mxGeometry x="105" y="170" width="640" height="110" as="geometry">
            <mxRectangle x="105" y="170" width="90" height="30" as="alternateBounds" />
          </mxGeometry>
        </mxCell>
        <mxCell id="ca8iUxLRkEPg5Z3yM6vb-16" value="" style="rounded=0;whiteSpace=wrap;html=1;" parent="ca8iUxLRkEPg5Z3yM6vb-15" vertex="1">
          <mxGeometry y="90" width="160" height="20" as="geometry" />
        </mxCell>
        <mxCell id="ca8iUxLRkEPg5Z3yM6vb-17" value="" style="rounded=0;whiteSpace=wrap;html=1;" parent="ca8iUxLRkEPg5Z3yM6vb-15" vertex="1">
          <mxGeometry y="50" width="160" height="20" as="geometry" />
        </mxCell>
        <mxCell id="ca8iUxLRkEPg5Z3yM6vb-18" value="" style="rounded=0;whiteSpace=wrap;html=1;" parent="ca8iUxLRkEPg5Z3yM6vb-15" vertex="1">
          <mxGeometry y="70" width="160" height="20" as="geometry" />
        </mxCell>
        <mxCell id="ca8iUxLRkEPg5Z3yM6vb-22" value="" style="rounded=0;whiteSpace=wrap;html=1;" parent="ca8iUxLRkEPg5Z3yM6vb-15" vertex="1">
          <mxGeometry y="30" width="160" height="20" as="geometry" />
        </mxCell>
        <mxCell id="ca8iUxLRkEPg5Z3yM6vb-23" value="" style="rounded=0;whiteSpace=wrap;html=1;fillColor=#fad7ac;strokeColor=#b46504;" parent="ca8iUxLRkEPg5Z3yM6vb-15" vertex="1">
          <mxGeometry x="160" y="90" width="160" height="20" as="geometry" />
        </mxCell>
        <mxCell id="ca8iUxLRkEPg5Z3yM6vb-24" value="" style="rounded=0;whiteSpace=wrap;html=1;" parent="ca8iUxLRkEPg5Z3yM6vb-15" vertex="1">
          <mxGeometry x="160" y="50" width="160" height="20" as="geometry" />
        </mxCell>
        <mxCell id="ca8iUxLRkEPg5Z3yM6vb-25" value="" style="rounded=0;whiteSpace=wrap;html=1;" parent="ca8iUxLRkEPg5Z3yM6vb-15" vertex="1">
          <mxGeometry x="160" y="70" width="160" height="20" as="geometry" />
        </mxCell>
        <mxCell id="ca8iUxLRkEPg5Z3yM6vb-26" value="" style="rounded=0;whiteSpace=wrap;html=1;" parent="ca8iUxLRkEPg5Z3yM6vb-15" vertex="1">
          <mxGeometry x="160" y="30" width="160" height="20" as="geometry" />
        </mxCell>
        <mxCell id="ca8iUxLRkEPg5Z3yM6vb-27" value="" style="rounded=0;whiteSpace=wrap;html=1;" parent="ca8iUxLRkEPg5Z3yM6vb-15" vertex="1">
          <mxGeometry x="320" y="90" width="160" height="20" as="geometry" />
        </mxCell>
        <mxCell id="ca8iUxLRkEPg5Z3yM6vb-28" value="" style="rounded=0;whiteSpace=wrap;html=1;" parent="ca8iUxLRkEPg5Z3yM6vb-15" vertex="1">
          <mxGeometry x="320" y="50" width="160" height="20" as="geometry" />
        </mxCell>
        <mxCell id="ca8iUxLRkEPg5Z3yM6vb-29" value="" style="rounded=0;whiteSpace=wrap;html=1;" parent="ca8iUxLRkEPg5Z3yM6vb-15" vertex="1">
          <mxGeometry x="320" y="70" width="160" height="20" as="geometry" />
        </mxCell>
        <mxCell id="ca8iUxLRkEPg5Z3yM6vb-30" value="" style="rounded=0;whiteSpace=wrap;html=1;" parent="ca8iUxLRkEPg5Z3yM6vb-15" vertex="1">
          <mxGeometry x="320" y="30" width="160" height="20" as="geometry" />
        </mxCell>
        <mxCell id="ca8iUxLRkEPg5Z3yM6vb-31" value="" style="rounded=0;whiteSpace=wrap;html=1;" parent="ca8iUxLRkEPg5Z3yM6vb-15" vertex="1">
          <mxGeometry x="480" y="90" width="160" height="20" as="geometry" />
        </mxCell>
        <mxCell id="ca8iUxLRkEPg5Z3yM6vb-32" value="" style="rounded=0;whiteSpace=wrap;html=1;" parent="ca8iUxLRkEPg5Z3yM6vb-15" vertex="1">
          <mxGeometry x="480" y="50" width="160" height="20" as="geometry" />
        </mxCell>
        <mxCell id="ca8iUxLRkEPg5Z3yM6vb-33" value="" style="rounded=0;whiteSpace=wrap;html=1;" parent="ca8iUxLRkEPg5Z3yM6vb-15" vertex="1">
          <mxGeometry x="480" y="70" width="160" height="20" as="geometry" />
        </mxCell>
        <mxCell id="ca8iUxLRkEPg5Z3yM6vb-34" value="" style="rounded=0;whiteSpace=wrap;html=1;" parent="ca8iUxLRkEPg5Z3yM6vb-15" vertex="1">
          <mxGeometry x="480" y="30" width="160" height="20" as="geometry" />
        </mxCell>
        <mxCell id="ca8iUxLRkEPg5Z3yM6vb-37" value="" style="endArrow=none;dashed=1;html=1;rounded=0;entryX=0.25;entryY=1;entryDx=0;entryDy=0;exitX=0;exitY=0;exitDx=0;exitDy=0;" parent="1" source="ca8iUxLRkEPg5Z3yM6vb-1" target="ca8iUxLRkEPg5Z3yM6vb-15" edge="1">
          <mxGeometry width="50" height="50" relative="1" as="geometry">
            <mxPoint x="440" y="360" as="sourcePoint" />
            <mxPoint x="490" y="310" as="targetPoint" />
          </mxGeometry>
        </mxCell>
        <mxCell id="ca8iUxLRkEPg5Z3yM6vb-38" value="" style="endArrow=none;dashed=1;html=1;rounded=0;entryX=0;entryY=1;entryDx=0;entryDy=0;exitX=1;exitY=0;exitDx=0;exitDy=0;" parent="1" source="ca8iUxLRkEPg5Z3yM6vb-1" target="ca8iUxLRkEPg5Z3yM6vb-27" edge="1">
          <mxGeometry width="50" height="50" relative="1" as="geometry">
            <mxPoint x="430" y="400" as="sourcePoint" />
            <mxPoint x="480" y="350" as="targetPoint" />
          </mxGeometry>
        </mxCell>
        <mxCell id="ca8iUxLRkEPg5Z3yM6vb-40" value="&lt;font style=&quot;font-size: 16px;&quot;&gt;&lt;b&gt;比特&lt;br&gt;bit&lt;br&gt;&lt;/b&gt;&lt;/font&gt;" style="whiteSpace=wrap;html=1;aspect=fixed;fillColor=#fad9d5;strokeColor=#ae4132;" parent="1" vertex="1">
          <mxGeometry x="395" y="520" width="60" height="60" as="geometry" />
        </mxCell>
        <mxCell id="ca8iUxLRkEPg5Z3yM6vb-41" value="" style="endArrow=none;dashed=1;html=1;rounded=0;exitX=0;exitY=0;exitDx=0;exitDy=0;entryX=0;entryY=1;entryDx=0;entryDy=0;" parent="1" source="ca8iUxLRkEPg5Z3yM6vb-40" target="ca8iUxLRkEPg5Z3yM6vb-4" edge="1">
          <mxGeometry width="50" height="50" relative="1" as="geometry">
            <mxPoint x="430" y="480" as="sourcePoint" />
            <mxPoint x="360" y="490" as="targetPoint" />
          </mxGeometry>
        </mxCell>
        <mxCell id="ca8iUxLRkEPg5Z3yM6vb-42" value="" style="endArrow=none;dashed=1;html=1;rounded=0;exitX=1;exitY=0;exitDx=0;exitDy=0;entryX=1;entryY=1;entryDx=0;entryDy=0;" parent="1" source="ca8iUxLRkEPg5Z3yM6vb-40" target="ca8iUxLRkEPg5Z3yM6vb-4" edge="1">
          <mxGeometry width="50" height="50" relative="1" as="geometry">
            <mxPoint x="430" y="480" as="sourcePoint" />
            <mxPoint x="480" y="430" as="targetPoint" />
          </mxGeometry>
        </mxCell>
        <mxCell id="ca8iUxLRkEPg5Z3yM6vb-43" value="&lt;b&gt;&lt;font style=&quot;font-size: 14px;&quot;&gt;可以存储一位二进制数据&lt;/font&gt;&lt;/b&gt;" style="text;html=1;strokeColor=none;fillColor=none;align=center;verticalAlign=middle;whiteSpace=wrap;rounded=0;" parent="1" vertex="1">
          <mxGeometry x="490" y="535" width="170" height="30" as="geometry" />
        </mxCell>
        <mxCell id="ca8iUxLRkEPg5Z3yM6vb-44" value="&lt;font style=&quot;font-size: 14px;&quot;&gt;&lt;b&gt;最小寻址单元&lt;/b&gt;&lt;/font&gt;" style="text;html=1;strokeColor=none;fillColor=none;align=center;verticalAlign=middle;whiteSpace=wrap;rounded=0;strokeWidth=1;" parent="1" vertex="1">
          <mxGeometry x="560" y="405" width="100" height="30" as="geometry" />
        </mxCell>
      </root>
    </mxGraphModel>
  </diagram>
</mxfile>
